<?xml version="1.0" standalone="no"?>
<!DOCTYPE svg PUBLIC "-//W3C//DTD SVG 20010904//EN"
 "http://www.w3.org/TR/2001/REC-SVG-20010904/DTD/svg10.dtd">
<svg version="1.0" xmlns="http://www.w3.org/2000/svg"
 width="1440.000000pt" height="750.000000pt" viewBox="0 0 1440.000000 750.000000"
 preserveAspectRatio="xMidYMid meet">

<g transform="translate(0.000000,750.000000) scale(0.100000,-0.100000)"
fill="#000000" stroke="none">
<path d="M10767 7004 c-7 -8 -43 -13 -102 -15 -16 0 -79 -25 -140 -54 -128
-63 -258 -165 -312 -246 -19 -29 -46 -66 -60 -83 -34 -41 -79 -142 -102 -231
-21 -79 -35 -270 -21 -300 6 -14 9 1 9 50 1 110 17 209 31 200 5 -3 16 21 25
52 9 32 18 63 20 70 2 7 20 23 39 35 20 13 36 28 36 34 0 14 43 54 58 54 7 0
12 7 12 15 0 8 5 15 10 15 6 0 10 6 10 14 0 9 7 12 20 9 12 -3 20 0 20 6 0 7
5 9 10 6 6 -3 10 -1 10 4 0 6 6 11 13 11 19 0 58 35 49 44 -4 5 0 7 8 6 8 -1
27 -2 42 -1 21 1 26 5 22 19 -5 13 -4 14 4 3 5 -7 14 -11 20 -7 6 3 13 2 17
-4 8 -13 42 -13 47 0 2 6 15 12 29 14 13 1 30 5 36 9 6 4 14 3 17 -2 3 -5 30
-7 61 -5 36 3 55 0 55 -7 0 -6 7 -9 15 -6 8 4 17 2 20 -3 4 -6 15 -10 26 -10
12 0 27 -12 37 -30 14 -23 26 -31 62 -36 57 -9 109 -36 124 -66 7 -13 22 -24
37 -26 27 -3 154 -112 131 -112 -10 0 -10 -3 2 -15 8 -8 22 -15 31 -15 11 0
15 -5 12 -15 -4 -8 5 -23 21 -35 15 -12 20 -18 12 -14 -10 5 -9 0 4 -14 11
-12 23 -22 29 -22 23 0 88 -123 73 -138 -2 -2 9 -39 25 -83 16 -44 27 -85 24
-90 -4 -5 1 -16 9 -25 17 -16 22 -44 9 -44 -13 0 -13 -63 0 -79 10 -12 9 -13
-1 -7 -17 10 -74 -13 -66 -26 4 -6 10 -5 15 3 7 11 9 10 9 -3 0 -10 -4 -18
-10 -18 -5 0 -14 -9 -20 -20 -13 -25 -1 -51 32 -68 23 -13 38 -62 19 -62 -12
0 -22 -42 -12 -54 17 -23 15 -89 -4 -127 -9 -16 -13 -39 -10 -49 4 -14 2 -20
-9 -20 -19 0 -19 -1 -6 -35 6 -16 6 -24 0 -20 -5 3 -19 -8 -31 -24 -12 -17
-26 -28 -30 -25 -4 2 -13 -5 -19 -16 -6 -11 -8 -20 -5 -20 3 0 -4 -9 -14 -19
-10 -10 -22 -33 -26 -50 -4 -17 -16 -37 -27 -45 -12 -9 -17 -19 -12 -27 5 -9
2 -10 -10 -6 -9 4 -15 3 -12 -2 9 -14 -35 -53 -54 -48 -10 2 -22 2 -28 -2 -14
-9 -52 -79 -52 -96 0 -45 -152 -144 -245 -160 -45 -8 -88 -32 -80 -44 2 -5 -2
-14 -10 -21 -25 -21 -17 -33 51 -79 60 -40 68 -43 112 -38 26 3 74 18 107 32
160 70 166 75 303 206 40 40 68 59 78 55 9 -3 12 -2 9 4 -10 17 5 54 18 41 7
-7 16 -7 29 0 10 5 23 7 28 4 6 -4 9 -1 8 6 -2 7 4 14 12 16 11 3 19 -11 29
-44 19 -67 48 -147 71 -196 15 -31 16 -37 4 -22 -9 11 -21 31 -28 45 -13 29
-45 35 -62 12 -7 -9 -18 -17 -25 -17 -14 0 -19 -19 -23 -98 -3 -59 5 -76 27
-60 13 10 42 9 69 -2 11 -4 21 0 30 14 16 26 28 27 28 4 0 -15 2 -16 10 -3 6
10 10 11 10 3 0 -7 11 -15 24 -19 24 -6 22 -9 -37 -58 -34 -29 -82 -63 -107
-76 -25 -12 -57 -31 -71 -41 -15 -10 -73 -39 -130 -64 -269 -119 -371 -177
-444 -254 -41 -43 -105 -81 -210 -123 -51 -20 -95 -26 -95 -13 0 24 41 78 76
100 34 21 44 34 44 54 0 48 -10 69 -31 64 -10 -3 -19 -11 -19 -18 0 -7 -7 -15
-15 -19 -8 -3 -15 -1 -15 4 0 6 -6 10 -14 10 -7 0 -16 9 -19 20 -3 11 -12 20
-20 20 -9 0 -17 14 -21 36 -6 29 -1 48 30 107 51 100 55 118 39 178 -8 28 -16
53 -19 56 -12 12 -92 -32 -188 -103 -57 -42 -122 -85 -144 -95 l-42 -17 5 -64
5 -65 -100 -31 c-55 -18 -115 -35 -134 -38 -18 -3 -49 -12 -68 -19 -52 -20
-127 -42 -204 -60 -38 -8 -76 -21 -83 -27 -11 -9 -18 -6 -30 13 -9 13 -34 40
-55 60 l-39 37 19 48 c42 108 36 172 -19 219 -34 28 -47 30 -100 15 -41 -12
-93 -55 -84 -70 4 -6 11 -8 16 -5 5 4 9 1 9 -5 0 -7 -7 -10 -15 -6 -8 3 -15 0
-15 -7 0 -7 -12 -13 -26 -14 -15 0 -30 -7 -34 -13 -6 -9 -16 -10 -36 -3 -24 8
-28 15 -26 37 9 69 -41 116 -122 116 -53 0 -76 -24 -76 -80 0 -27 -3 -32 -11
-20 -9 13 -10 13 -6 0 2 -9 20 -18 43 -21 21 -3 30 -7 20 -8 -10 0 -41 -14
-68 -31 -26 -16 -56 -30 -66 -30 -29 0 -92 -66 -92 -97 0 -14 -3 -23 -7 -20
-3 4 -16 1 -28 -7 -20 -13 -25 -13 -45 1 -30 21 -54 7 -102 -60 -26 -35 -38
-62 -38 -85 0 -18 4 -31 9 -28 5 3 3 -14 -4 -39 -8 -24 -12 -54 -10 -65 2 -11
-1 -20 -6 -20 -34 0 -44 -53 -15 -72 6 -4 11 -11 11 -15 1 -4 7 -19 14 -31 7
-13 15 -49 17 -80 3 -32 7 -79 9 -106 4 -47 4 -49 -11 -28 -23 33 -37 27 -29
-10 4 -18 10 -37 14 -43 3 -5 6 -25 6 -43 0 -29 -1 -31 -12 -15 -7 9 -13 24
-13 32 0 9 -7 83 -14 165 -14 146 -20 165 -53 166 -21 0 -52 -51 -63 -106 -21
-102 -11 -343 20 -478 13 -57 2 -300 -15 -344 -23 -57 -35 -132 -21 -132 6 0
4 -5 -4 -10 -20 -13 -33 -13 -25 0 7 12 -22 12 -50 0 l-20 -9 20 -1 c15 -1 16
-3 5 -7 -27 -10 -39 -24 -33 -39 4 -10 12 -12 27 -8 18 6 19 5 8 -9 -9 -10
-11 -25 -7 -39 4 -13 4 -20 0 -16 -12 11 -35 -11 -29 -27 3 -7 1 -16 -5 -20
-6 -3 -11 1 -11 9 0 27 -19 17 -22 -11 -2 -24 -8 -28 -33 -28 -23 -1 -31 -6
-33 -23 -4 -26 -15 -28 -32 -7 -7 9 -15 14 -17 11 -9 -9 72 -106 114 -136 53
-38 310 -147 321 -135 2 2 39 218 82 482 l79 478 41 37 c40 36 152 88 190 88
30 0 40 81 -90 -725 -38 -236 -81 -506 -95 -600 -13 -93 -31 -208 -40 -255 -8
-47 -26 -159 -40 -250 -35 -225 -30 -210 -65 -210 -16 0 -31 4 -34 9 -11 17
-101 30 -160 24 -31 -3 -53 -10 -49 -14 4 -4 28 -4 52 2 49 11 86 4 61 -11
-11 -7 -7 -10 15 -16 26 -6 27 -8 10 -14 -11 -4 -21 -12 -21 -19 -1 -6 -2 -14
-3 -17 0 -4 -13 2 -27 11 -26 17 -27 17 -22 -3 4 -15 2 -19 -8 -15 -8 3 -14 0
-14 -7 0 -6 -4 -8 -10 -5 -5 3 -10 1 -10 -6 0 -7 -3 -9 -6 -6 -8 8 -55 -44
-48 -54 5 -9 -25 -21 -37 -13 -5 3 -9 1 -9 -5 0 -7 -10 -6 -30 1 -46 16 -61 6
-49 -34 11 -41 11 -48 -1 -48 -5 0 -10 9 -10 20 0 24 -29 38 -40 20 -11 -18
-1 -40 16 -33 8 3 14 2 14 -1 0 -17 -43 -88 -55 -93 -16 -5 -21 -53 -6 -53 5
0 14 13 21 30 16 39 41 61 33 28 -4 -13 -13 -33 -20 -45 -17 -26 -8 -72 10
-54 6 6 17 11 24 11 7 0 28 17 47 37 28 31 32 39 19 48 -12 9 -12 15 -2 38 9
20 15 24 25 16 7 -6 10 -18 7 -26 -5 -12 -2 -15 10 -10 11 4 18 -1 23 -16 5
-12 7 -25 6 -29 -1 -4 3 -19 8 -32 6 -17 6 -36 -1 -56 -10 -26 -13 -29 -27
-18 -13 11 -15 10 -10 -10 6 -20 4 -22 -10 -10 -13 11 -15 11 -9 -4 3 -10 2
-18 -3 -18 -5 0 -10 10 -12 23 -2 12 -7 22 -13 22 -5 0 -16 4 -23 9 -17 10
-42 -11 -42 -35 0 -12 -7 -19 -19 -19 -29 0 -45 -25 -32 -49 6 -11 17 -18 25
-15 10 4 15 -6 18 -35 2 -21 0 -37 -4 -35 -5 3 -8 1 -8 -4 0 -15 28 -34 39
-28 5 3 12 0 15 -6 5 -10 7 -10 12 0 3 6 13 12 21 12 9 0 13 -3 10 -6 -3 -4
-2 -15 4 -25 7 -15 6 -17 -6 -13 -17 7 -21 -11 -5 -21 14 -9 12 -45 -2 -47 -7
0 -17 -2 -23 -3 -5 -2 -17 -3 -25 -4 -18 -2 -96 -68 -89 -75 3 -3 27 6 54 19
28 13 63 27 78 31 l29 7 -7 -92 c-6 -87 -6 -91 14 -91 12 0 20 -3 20 -7 -4
-23 3 -33 23 -33 35 0 9 -16 -54 -34 -43 -12 -56 -20 -52 -31 5 -12 24 -15 84
-15 105 0 130 -10 131 -52 1 -25 5 -18 13 27 l11 60 59 3 58 3 -7 -48 c-10
-66 -33 -121 -55 -128 -10 -3 -24 -12 -30 -20 -11 -13 30 -15 322 -15 l335 0
7 42 c4 24 16 78 27 120 20 75 22 78 66 99 24 12 46 19 49 16 3 -3 -6 -57 -20
-120 -14 -63 -26 -124 -26 -136 l0 -21 546 0 c486 0 548 2 558 16 11 14 25 14
162 0 124 -13 297 -16 983 -16 l832 0 -6 62 c-3 35 -12 144 -20 243 -8 99 -28
261 -44 360 -16 99 -32 215 -36 257 l-7 78 35 39 c40 44 58 77 77 136 7 22 38
69 69 104 31 35 80 93 110 130 29 36 72 89 96 116 47 55 141 222 179 319 20
49 28 95 36 202 6 77 15 180 21 229 12 100 4 593 -12 790 -13 165 -32 252 -94
437 -30 87 -61 193 -69 235 -10 47 -36 119 -66 180 -53 108 -96 159 -247 290
-76 67 -106 83 -155 83 -42 0 -144 56 -193 106 -88 91 -119 143 -155 264 -28
92 -32 98 -69 92 -37 -5 -136 15 -150 31 -5 7 -14 55 -20 107 -5 52 -21 183
-35 290 -38 286 -36 306 28 344 24 14 55 44 71 68 16 24 21 37 12 29 -23 -19
-21 -9 8 41 48 81 67 131 73 191 4 48 2 58 -8 52 -10 -6 -11 0 -6 30 5 25 4
35 -3 30 -6 -3 -9 0 -5 8 6 17 -16 41 -58 63 -30 16 -31 15 -69 -22 -21 -20
-39 -47 -41 -58 -2 -13 -12 -22 -26 -24 l-22 -3 20 53 c21 57 68 108 99 108
18 0 19 8 16 117 -3 80 -10 138 -24 182 -11 36 -22 78 -25 92 -3 14 -16 39
-28 54 -13 16 -30 45 -38 66 -30 73 -269 319 -311 319 -7 0 -26 4 -43 9 -17 5
-47 14 -66 19 -19 6 -60 20 -90 32 -43 16 -85 22 -190 27 -74 3 -139 2 -143
-3z m564 -681 c13 -16 12 -17 -3 -4 -17 13 -22 21 -14 21 2 0 10 -8 17 -17z
m388 -337 c18 -22 51 -127 51 -164 0 -21 -12 -57 -30 -89 -24 -43 -29 -60 -24
-91 7 -47 -19 -75 -71 -76 -31 -1 -33 -3 -18 -13 15 -12 14 -13 -9 -13 -34 0
-57 28 -47 60 4 15 7 18 8 8 1 -9 5 -19 10 -22 5 -3 2 22 -5 57 -15 68 -18
120 -7 130 3 4 7 24 7 45 1 46 18 54 29 12 4 -17 12 -28 17 -25 18 11 10 -10
-20 -49 -40 -53 -40 -73 0 -49 21 12 28 23 24 35 -3 10 -1 18 5 18 6 0 11 -6
11 -13 0 -29 21 -36 56 -19 38 18 52 46 33 68 -9 11 -15 12 -26 2 -12 -10 -17
-8 -26 7 -6 11 -13 31 -15 45 -1 14 -9 30 -17 36 -16 12 -20 30 -7 36 4 2 15
20 24 41 19 40 29 45 47 23z m98 -143 c-3 -10 -5 -4 -5 12 0 17 2 24 5 18 2
-7 2 -21 0 -30z m-372 -63 c-9 -15 -45 -32 -45 -22 0 5 10 14 23 20 29 14 29
14 22 2z m-1012 -1847 c9 -44 -3 -154 -20 -193 -11 -24 -13 -35 -4 -38 6 -2 9
-8 5 -13 -3 -5 -12 -2 -21 7 -13 13 -14 29 -8 92 10 107 10 124 1 150 -6 19
-4 22 17 22 19 0 26 -6 30 -27z m-973 -36 c1 -4 -4 -15 -9 -25 -9 -16 -11 -16
-25 3 -23 30 -20 44 9 37 13 -4 25 -10 25 -15z m2020 -189 c33 -45 60 -123 60
-173 0 -48 -24 -118 -57 -167 -21 -31 -27 -50 -22 -64 4 -10 8 -32 9 -49 1
-23 8 -11 26 49 l25 78 36 -5 c19 -4 38 -8 40 -11 3 -2 -37 -102 -87 -220 -60
-141 -97 -216 -107 -216 -19 0 -13 29 34 168 l34 104 -24 32 c-14 17 -49 44
-78 59 -30 15 -43 20 -29 10 51 -36 110 -101 110 -122 0 -25 -10 -26 -79 -5
-89 26 -186 145 -207 254 -8 35 4 38 76 16 104 -31 97 -34 96 37 0 56 4 69 42
131 23 38 45 84 48 103 3 18 10 33 15 33 5 0 22 -19 39 -42z m-1021 -83 c41
-108 19 -268 -52 -380 -51 -81 -232 -303 -327 -400 -48 -49 -99 -110 -115
-134 -53 -86 -94 -236 -124 -462 -11 -79 -38 -234 -60 -344 -22 -110 -47 -240
-56 -290 -25 -135 -55 -249 -68 -257 -7 -5 0 -8 16 -8 15 0 27 -3 27 -7 -1
-12 -86 -72 -107 -77 -10 -1 -39 -13 -65 -25 -25 -11 -53 -19 -61 -15 -8 3
-28 -1 -44 -9 -36 -19 -100 -23 -136 -8 -16 6 -34 11 -42 11 -32 0 -23 20 12
26 21 4 54 15 73 25 101 50 176 72 245 73 39 0 57 2 42 4 -22 3 -27 7 -22 20
22 56 58 201 75 301 12 64 32 179 46 256 26 142 36 220 54 420 13 141 41 257
82 342 26 54 61 97 168 208 303 314 361 396 396 558 18 88 18 141 -2 179 -13
25 -14 32 -2 39 22 15 26 11 47 -46z m-1822 -147 c-3 -8 -6 -5 -6 6 -1 11 2
17 5 13 3 -3 4 -12 1 -19z m43 -146 l11 -43 62 5 c62 6 62 6 28 -9 -18 -8 -40
-15 -47 -15 -8 0 -14 -4 -14 -10 0 -5 4 -10 9 -10 5 0 11 -18 13 -40 3 -31 0
-40 -10 -38 -14 3 -91 226 -91 263 1 21 21 -32 39 -103z m2290 -319 c0 -55
-47 -149 -65 -131 -10 10 38 148 52 148 7 0 13 -7 13 -17z m84 -63 c19 -19 18
-66 -4 -100 -17 -28 -32 2 -19 39 9 27 9 35 -2 42 -17 10 -35 -5 -43 -36 -4
-14 -13 -25 -21 -25 -18 0 -18 -5 0 58 15 49 17 52 43 46 15 -4 35 -14 46 -24z
m76 -3 c0 -18 -5 -38 -12 -45 -6 -6 -11 -27 -10 -46 1 -26 -2 -34 -13 -30 -20
8 -25 29 -15 64 5 17 9 33 9 35 6 58 41 77 41 22z m78 -43 c14 -10 22 -25 22
-46 0 -32 -6 -33 -67 -12 -12 5 -15 4 -8 -4 6 -5 19 -12 29 -14 33 -5 31 -28
-3 -28 -20 0 -35 8 -45 22 -21 29 -20 40 5 72 24 30 36 32 67 10z m222 -1 c0
-5 11 -9 25 -9 42 -3 55 -12 55 -39 0 -38 -29 -90 -43 -76 -7 7 -7 18 1 36 25
55 2 63 -29 10 -18 -30 -25 -34 -47 -29 -36 9 -37 11 -22 29 9 11 9 15 1 15
-14 0 -30 -40 -24 -57 3 -6 0 -20 -5 -30 -10 -16 -11 -16 -21 9 -16 41 1 79
50 114 45 34 59 40 59 27z m-146 -29 c20 -8 21 -34 2 -34 -8 0 -20 -16 -26
-36 -8 -25 -15 -33 -23 -25 -7 7 -6 24 3 55 13 47 17 50 44 40z m-2917 -200
c-3 -3 -12 -4 -19 -1 -8 3 -5 6 6 6 11 1 17 -2 13 -5z m3098 -575 c180 -32
268 -50 400 -81 l130 -31 115 -111 c156 -151 231 -247 268 -343 42 -108 57
-189 44 -233 l-10 -35 -1 46 c-1 58 -24 135 -68 227 -29 63 -58 97 -181 224
-94 97 -161 157 -187 169 -44 19 -441 102 -598 124 -61 8 -108 10 -127 5 -42
-12 -40 14 3 40 38 24 73 24 212 -1z m-92 -269 c51 -12 106 -27 124 -35 17 -8
38 -15 46 -15 9 0 31 -13 49 -30 18 -16 29 -30 24 -30 -5 0 -2 -7 5 -16 13
-16 18 -47 21 -136 1 -23 7 -38 14 -38 22 0 44 12 38 21 -3 5 2 6 10 3 9 -3
16 -11 16 -16 0 -7 4 -7 13 0 10 8 13 6 13 -8 0 -10 -3 -17 -7 -14 -4 2 -9 -5
-12 -15 -3 -14 -1 -18 9 -14 12 4 12 0 0 -28 -8 -18 -20 -35 -26 -37 -8 -3
-10 0 -5 8 5 8 4 11 -3 7 -5 -4 -8 -17 -4 -29 3 -12 1 -19 -5 -15 -6 4 -7 -12
-3 -42 3 -26 1 -59 -5 -72 -10 -25 -43 -63 -54 -64 -3 -1 -17 -5 -30 -9 -33
-11 -150 -13 -144 -2 3 5 -19 5 -53 1 -32 -5 -81 -9 -109 -11 -27 -1 -57 -5
-65 -8 -8 -3 -41 -12 -73 -20 -31 -8 -65 -22 -74 -31 -21 -22 -113 -66 -113
-54 0 5 -4 9 -9 9 -5 0 -7 -9 -4 -20 3 -11 10 -20 15 -20 5 0 6 -5 2 -11 -4
-7 -10 -7 -16 -1 -7 7 -28 4 -64 -8 -38 -14 -54 -15 -54 -7 0 7 -7 4 -14 -6
-8 -10 -20 -17 -28 -16 -7 2 -26 0 -41 -4 -15 -4 -35 -3 -45 2 -10 6 -12 11
-4 11 6 0 12 5 12 10 0 7 -8 7 -22 -1 -20 -11 -20 -13 -5 -24 16 -11 15 -13
-6 -17 -14 -3 -33 1 -43 9 -10 7 -15 13 -12 13 4 0 1 12 -7 27 -8 15 -12 30
-8 33 3 3 8 -1 10 -7 8 -22 21 -14 19 11 -1 16 -6 22 -15 18 -10 -4 -13 -1 -8
11 9 23 -8 30 -26 12 -25 -24 -47 -18 -86 26 -35 37 -72 116 -78 164 -9 67 -3
225 10 256 15 37 4 31 302 165 235 106 280 124 328 134 59 13 191 4 300 -20z
m-963 -267 c-17 -56 -31 -355 -20 -438 5 -44 16 -188 25 -321 8 -133 17 -250
21 -260 4 -15 3 -16 -4 -4 -11 18 -29 141 -37 260 -3 47 -11 141 -17 210 -6
69 -12 186 -13 260 -1 110 -4 135 -16 135 -18 0 -17 11 5 58 9 22 14 47 10 59
-4 15 1 27 22 44 16 13 30 23 31 24 1 0 -2 -12 -7 -27z m-175 -63 c-3 -5 -17
-10 -30 -10 -14 0 -39 -9 -57 -20 -18 -11 -44 -20 -57 -20 -13 0 -40 -9 -60
-19 -20 -11 -44 -22 -55 -25 -11 -4 -16 -12 -12 -22 3 -9 2 -12 -4 -9 -13 8
-42 -20 -32 -30 4 -4 -3 -2 -15 4 -27 14 -32 -3 -5 -18 9 -6 13 -11 9 -11 -17
0 -56 33 -50 44 3 6 2 7 -3 3 -5 -5 -9 -12 -9 -16 0 -4 -7 -15 -16 -24 -16
-15 -17 -15 -23 6 -4 14 -9 18 -13 11 -5 -8 -22 -9 -46 -5 l-39 6 24 21 c23
21 89 46 158 59 19 4 78 21 130 37 81 26 151 43 198 47 7 0 10 -3 7 -9z m-430
-180 c-3 -5 -12 -10 -18 -10 -7 0 -6 4 3 10 19 12 23 12 15 0z m119 -21 c-3
-6 0 -15 7 -20 9 -6 10 -9 2 -9 -15 0 -26 17 -18 30 3 6 8 10 11 10 3 0 2 -5
-2 -11z m-784 -19 c0 -5 -2 -10 -4 -10 -3 0 -8 5 -11 10 -3 6 -1 10 4 10 6 0
11 -4 11 -10z m740 -198 c0 -5 -9 -19 -20 -32 -25 -28 -26 -18 -2 15 19 27 22
29 22 17z"/>
<path d="M11670 5690 c0 -5 5 -10 10 -10 6 0 10 5 10 10 0 6 -4 10 -10 10 -5
0 -10 -4 -10 -10z"/>
<path d="M11416 3474 c-18 -54 -21 -94 -6 -94 6 0 10 15 10 34 0 18 5 47 11
65 6 18 9 34 6 37 -2 3 -12 -16 -21 -42z"/>
<path d="M9490 1300 c-13 -9 -13 -10 0 -10 8 0 22 5 30 10 13 9 13 10 0 10 -8
0 -22 -5 -30 -10z"/>
<path d="M11170 2880 c0 -6 7 -10 15 -10 8 0 15 2 15 4 0 2 -7 6 -15 10 -8 3
-15 1 -15 -4z"/>
<path d="M10925 6341 c-53 -14 -183 -72 -196 -87 -6 -8 -17 -14 -24 -14 -7 0
-16 -7 -19 -16 -4 -9 -9 -14 -13 -11 -7 7 -49 -44 -45 -55 1 -5 -2 -8 -7 -8
-4 0 -7 -17 -5 -37 2 -21 5 -100 8 -176 2 -80 9 -143 15 -151 8 -10 7 -16 -4
-26 -23 -19 -18 -49 10 -60 14 -5 25 -12 25 -14 0 -3 -7 -3 -16 1 -13 5 -15 2
-10 -13 4 -15 -6 -31 -39 -64 -55 -54 -58 -83 -14 -106 27 -13 38 -14 74 -4
31 9 48 9 63 1 22 -12 39 0 27 19 -3 6 -1 10 4 10 6 0 11 -7 11 -15 0 -16 12
-20 24 -7 4 4 13 7 18 7 6 0 13 6 16 14 3 10 -2 11 -19 6 -22 -6 3 11 61 44 8
4 15 13 15 19 0 33 60 12 89 -32 9 -15 23 -26 32 -26 8 0 17 -7 20 -15 4 -8
10 -12 15 -9 17 10 47 -16 54 -46 4 -16 11 -30 16 -30 14 0 11 21 -10 66 -22
48 -85 96 -241 184 -30 17 -70 42 -89 55 -19 14 -44 25 -55 25 -14 0 -25 9
-32 28 -11 30 -8 55 6 47 5 -3 16 5 25 19 12 18 14 30 6 44 -6 11 -8 22 -5 24
2 3 -2 18 -11 34 -17 33 -2 63 16 32 6 -10 17 -18 24 -18 8 0 15 -9 15 -20 0
-23 3 -24 49 -10 33 9 33 9 27 -20 -5 -26 -3 -30 17 -30 83 0 244 51 230 73
-4 6 2 8 14 5 14 -4 26 4 43 28 12 19 29 34 36 34 13 0 16 7 13 26 0 4 5 11
13 15 10 7 10 9 0 9 -9 0 -10 5 -2 19 15 30 12 56 -10 76 -28 25 -25 32 10 27
24 -3 29 -1 24 11 -7 20 -79 79 -123 102 -39 19 -131 28 -176 16z m153 -94
c46 -22 34 -25 -117 -30 -62 -2 -74 1 -76 14 -2 11 5 17 19 18 11 0 44 4 71 9
52 8 66 7 103 -11z m-198 -96 c0 -5 -9 -12 -20 -16 -11 -3 -39 -29 -63 -56
-37 -42 -45 -48 -51 -33 -8 21 33 67 84 94 40 22 50 24 50 11z m-66 -86 c-9
-14 -18 -25 -21 -25 -5 0 5 18 20 38 17 22 18 13 1 -13z m70 -70 c3 -10 -3
-17 -20 -21 -33 -8 -44 4 -20 22 25 18 32 18 40 -1z m-184 -66 c0 -6 -4 -7
-10 -4 -5 3 -10 11 -10 16 0 6 5 7 10 4 6 -3 10 -11 10 -16z m255 1 c-28 -12
-55 -12 -55 0 0 6 17 10 38 9 30 0 33 -2 17 -9z m-245 -27 c0 -10 -20 -40 -20
-31 0 3 -3 13 -6 22 -4 11 -1 16 10 16 9 0 16 -3 16 -7z m68 -229 c19 -13 21
-18 11 -31 -14 -16 -73 -10 -96 9 -39 32 42 53 85 22z"/>
<path d="M10140 6141 c-22 -11 -45 -37 -62 -67 -33 -59 -33 -59 -10 -61 12 -1
22 9 29 27 19 52 59 60 213 44 73 -8 134 -13 136 -12 9 9 -12 60 -27 69 -11 5
-70 12 -132 14 -96 4 -118 2 -147 -14z"/>
<path d="M10363 5997 c5 -13 0 -15 -26 -11 -30 4 -30 4 -9 -7 34 -18 27 -26
-29 -28 -28 -1 -59 -6 -69 -11 -10 -6 -27 -9 -37 -8 -45 4 -65 -2 -59 -18 3
-8 2 -13 -3 -10 -11 7 -21 -17 -21 -50 0 -17 6 -24 19 -24 10 0 35 -7 56 -16
21 -8 44 -13 51 -10 8 3 14 1 14 -3 0 -5 28 -8 63 -7 64 2 124 24 120 44 -2 6
6 14 17 17 11 4 20 9 20 13 0 12 -39 108 -40 98 0 -6 -5 -5 -11 1 -6 6 -19 9
-28 6 -13 -4 -13 -3 -2 5 11 8 9 12 -9 22 -20 11 -22 10 -17 -3z m47 -121 c0
-3 -4 -8 -10 -11 -5 -3 -10 -1 -10 4 0 6 5 11 10 11 6 0 10 -2 10 -4z m-132
-26 c11 -17 10 -20 -7 -20 -36 0 -53 11 -40 26 16 20 32 17 47 -6z"/>
<path d="M10338 5488 c-76 -116 -85 -152 -58 -217 12 -27 34 -61 50 -76 16
-16 26 -33 23 -39 -3 -6 -2 -7 3 -3 4 4 9 18 9 29 0 28 29 33 115 22 44 -6 45
-6 28 13 -32 35 -23 61 25 73 23 6 52 16 64 22 12 6 34 8 49 5 16 -3 37 1 51
10 15 10 36 14 57 10 20 -3 39 0 45 6 7 7 26 13 44 14 63 5 86 10 102 23 11 9
19 10 26 3 16 -16 6 -47 -15 -51 -11 -2 -26 -11 -34 -19 -8 -8 -24 -12 -35 -9
-11 3 -25 -1 -31 -8 -6 -8 -50 -26 -98 -41 -91 -28 -113 -41 -53 -29 31 5 35
4 35 -15 0 -20 -44 -51 -73 -51 -7 0 -22 -7 -33 -15 -16 -13 -17 -16 -4 -25
34 -23 162 16 229 70 101 82 199 178 205 202 16 60 -40 96 -91 59 -22 -16 -54
-24 -143 -32 -83 -8 -129 -18 -166 -35 -28 -13 -65 -24 -82 -24 -17 0 -63 -17
-102 -37 -77 -40 -87 -40 -124 10 -14 19 -16 30 -9 39 6 7 16 31 22 53 7 22
17 49 22 61 6 11 9 36 7 55 -3 34 -3 34 -60 -53z"/>
<path d="M10455 5546 c-10 -7 -16 -20 -12 -28 9 -24 55 -28 79 -8 l22 17 -32
17 c-37 19 -34 19 -57 2z"/>
<path d="M11481 4901 c14 -38 29 -40 26 -4 -2 17 -9 29 -19 31 -15 3 -16 -1
-7 -27z"/>
<path d="M8346 2839 c3 -6 0 -15 -7 -20 -11 -7 -10 -9 4 -9 10 0 17 8 17 20 0
11 -5 20 -11 20 -5 0 -7 -5 -3 -11z"/>
<path d="M8325 2790 c-4 -7 3 -8 22 -4 38 9 42 14 10 14 -14 0 -29 -5 -32 -10z"/>
<path d="M8330 2768 c-11 -4 -20 -9 -20 -12 0 -5 82 13 89 20 7 6 -46 1 -69
-8z"/>
<path d="M8325 2740 l-20 -9 20 1 c11 0 31 4 45 8 l25 8 -25 0 c-14 0 -34 -3
-45 -8z"/>
<path d="M8100 200 c-13 -8 -13 -10 2 -10 9 0 20 5 23 10 8 13 -5 13 -25 0z"/>
</g>
</svg>
