<svg id="linea_2" data-name="linea 2" xmlns="http://www.w3.org/2000/svg" xmlns:xlink="http://www.w3.org/1999/xlink" viewBox="0 0 1200 1200"><defs><style>.cls-1{fill:url(#Degradado_sin_nombre_17);}.cls-2{fill:url(#Degradado_sin_nombre_17-2);}</style><linearGradient id="Degradado_sin_nombre_17" x1="70.34" y1="591.07" x2="164.17" y2="591.07" gradientUnits="userSpaceOnUse"><stop offset="0.14" stop-color="#a9cf46"/><stop offset="1" stop-color="#a9cf46"/></linearGradient><linearGradient id="Degradado_sin_nombre_17-2" x1="1050.25" y1="591.07" x2="1144.09" y2="591.07" xlink:href="#Degradado_sin_nombre_17"/></defs><path class="cls-1" d="M138.94,775.83a25.22,25.22,0,0,1-19.87-9.64c-30.51-38.81-48.73-105.32-48.73-177.9,0-67.85,16.35-131.83,43.75-171.16A25.25,25.25,0,0,1,155.53,446c-21.4,30.71-34.69,85.24-34.69,142.29,0,60.72,14.54,116.92,37.93,146.68a25.25,25.25,0,0,1-19.83,40.86Z"/><path class="cls-2" d="M1075.49,775.83A25.26,25.26,0,0,1,1055.65,735c23.4-29.75,37.93-86,37.93-146.68,0-57.06-13.29-111.58-34.68-142.29a25.25,25.25,0,0,1,41.44-28.87c27.39,39.33,43.75,103.31,43.75,171.16,0,72.59-18.22,139.09-48.74,177.9A25.22,25.22,0,0,1,1075.49,775.83Z"/></svg>