<svg id="Linea_1" data-name="Linea 1" xmlns="http://www.w3.org/2000/svg" xmlns:xlink="http://www.w3.org/1999/xlink" viewBox="0 0 1200 1200"><defs><style>.cls-1{fill:url(#Degradado_sin_nombre_17);}.cls-2{fill:url(#Degradado_sin_nombre_17-2);}</style><linearGradient id="Degradado_sin_nombre_17" x1="191.67" y1="591.07" x2="261.11" y2="591.07" gradientUnits="userSpaceOnUse"><stop offset="0.14" stop-color="#a9cf46"/><stop offset="1" stop-color="#a9cf46"/></linearGradient><linearGradient id="Degradado_sin_nombre_17-2" x1="953.32" y1="591.07" x2="1022.76" y2="591.07" xlink:href="#Degradado_sin_nombre_17"/></defs><path class="cls-1" d="M231.12,700.71a25.24,25.24,0,0,1-23.6-16.27,245.45,245.45,0,0,1-15.85-87.66c0-35,7.32-69.76,21.16-100.47a25.25,25.25,0,1,1,46,20.76,199.16,199.16,0,0,0-4.15,149.41,25.25,25.25,0,0,1-23.6,34.23Z"/><path class="cls-2" d="M983.31,700.71a25.25,25.25,0,0,1-23.6-34.23,199.1,199.1,0,0,0-4.16-149.41,25.25,25.25,0,0,1,46-20.76c13.85,30.71,21.17,65.45,21.17,100.47a245.45,245.45,0,0,1-15.85,87.66A25.26,25.26,0,0,1,983.31,700.71Z"/></svg>